HIERARCHY
ROOT Hips
{
	OFFSET	0.000000	0.000000	0.000000
	CHANNELS 6 Xposition Yposition Zposition Zrotation Xrotation Yrotation
	JOINT LeftHip
	{
		OFFSET	4.740440	-3.195970	-0.322709
		CHANNELS 3 Zrotation Xrotation Yrotation
		JOINT LeftKnee
		{
			OFFSET	-1.605680	-15.592300	1.005510
			CHANNELS 3 Zrotation Xrotation Yrotation
			JOINT LeftAnkle
			{
				OFFSET	-0.632401	-16.421000	-1.413730
				CHANNELS 3 Zrotation Xrotation Yrotation
				End Site
				{
					OFFSET	0.008423	-2.933000	-1.684880
				}
			}
		}
	}
	JOINT RightHip
	{
		OFFSET	-4.740440	-3.195970	-0.322709
		CHANNELS 3 Zrotation Xrotation Yrotation
		JOINT RightKnee
		{
			OFFSET	1.605680	-15.592300	1.005510
			CHANNELS 3 Zrotation Xrotation Yrotation
			JOINT RightAnkle
			{
				OFFSET	0.632401	-16.421000	-1.413730
				CHANNELS 3 Zrotation Xrotation Yrotation
				End Site
				{
					OFFSET	-0.008423	-2.933000	-1.684880
				}
			}
		}
	}
	JOINT Chest
	{
		OFFSET	0.000000	3.468200	0.078401
		CHANNELS 3 Zrotation Xrotation Yrotation
		JOINT LeftCollar
		{
			OFFSET	3.857650	15.070700	-0.011583
			CHANNELS 3 Zrotation Xrotation Yrotation
			JOINT LeftShoulder
			{
				OFFSET	3.979720	-1.940530	-0.165223
				CHANNELS 3 Zrotation Xrotation Yrotation
				JOINT LeftElbow
				{
					OFFSET	0.615844	-10.986600	-0.673886
					CHANNELS 3 Zrotation Xrotation Yrotation
					JOINT LeftWrist
					{
						OFFSET	0.826843	-10.854500	1.034220
						CHANNELS 3 Zrotation Xrotation Yrotation
						End Site
						{
							OFFSET	-1.679080	-8.456540	0.936217
						}
					}
				}
			}
		}
		JOINT RightCollar
		{
			OFFSET	-3.857650	15.070700	-0.011583
			CHANNELS 3 Zrotation Xrotation Yrotation
			JOINT RightShoulder
			{
				OFFSET	-3.979720	-1.940530	-0.165223
				CHANNELS 3 Zrotation Xrotation Yrotation
				JOINT RightElbow
				{
					OFFSET	-0.615845	-10.986600	-0.673886
					CHANNELS 3 Zrotation Xrotation Yrotation
					JOINT RightWrist
					{
						OFFSET	-0.826843	-10.854500	1.034220
						CHANNELS 3 Zrotation Xrotation Yrotation
						End Site
						{
							OFFSET	1.679080	-8.456540	0.936217
						}
					}
				}
			}
		}
		JOINT Neck
		{
			OFFSET	0.000000	15.101400	0.055730
			CHANNELS 3 Zrotation Xrotation Yrotation
			JOINT Head
			{
				OFFSET	0.000000	4.185120	1.488260
				CHANNELS 3 Zrotation Xrotation Yrotation
				End Site
				{
					OFFSET	0.000000	7.773420	-0.106016
				}
			}
		}
	}
}
MOTION
Frames:     16
Frame Time: 0.016667
-15.509512	37.367676	40.555607	-177.525925	168.665527	1.968687	4.993530	-11.232126	-4.513189	-10.090633	61.339985	18.562866	-14.834476	-0.692452	19.234192	5.124693	-0.021828	4.332934	3.432137	13.218507	55.234287	-7.594752	4.135391	-51.913731	1.200113	12.609471	1.493313	3.612031	0.210820	7.294174	6.177873	4.055679	-13.465232	-6.169529	-17.902298	-0.890623	15.528565	3.444808	-19.661913	0.503661	2.387124	-1.548440	-6.603976	6.816181	6.479679	1.853952	-10.669395	19.027916	-14.614006	4.008972	9.235921	0.219674	9.797904	7.222685	7.466921	6.190253	-4.877526	
-15.512808	37.366093	40.723248	-177.692612	168.804611	2.383621	5.172080	-10.559850	-4.743420	-10.446592	61.847065	18.677370	-15.227555	1.622132	19.580051	4.874249	-0.500647	4.146130	3.579587	13.303399	55.159061	-7.438751	4.272405	-52.019764	1.114051	12.297615	1.331443	3.638920	0.177724	7.239202	6.197041	4.094903	-13.419742	-6.079891	-17.622398	-0.892966	15.540229	3.443939	-19.689653	0.474102	2.378849	-1.635485	-6.552327	7.010970	6.291073	1.767302	-10.171231	19.128557	-14.620899	3.807251	9.142374	0.165867	9.715654	7.258172	7.619898	6.318859	-5.054112	
-15.516214	37.353443	41.214027	-178.273163	169.210510	3.600790	5.720549	-8.402326	-5.565599	-11.691731	62.645138	19.194759	-15.906219	1.445647	18.829578	4.015818	-1.991178	3.579528	4.023623	13.765747	55.005077	-6.985844	4.612307	-52.419746	0.725136	11.363742	0.807329	3.697575	0.121881	7.115889	6.289413	4.212392	-13.312133	-5.828034	-16.840776	-0.795344	15.617538	3.452343	-19.722845	0.393166	2.379907	-1.812792	-6.392720	7.564565	5.793470	1.722504	-9.727423	19.267994	-14.535298	4.114385	9.112490	0.195466	10.008290	6.873385	7.745702	6.234499	-4.971178	
-15.516418	37.346260	41.382164	-178.468506	169.341873	4.013955	5.900715	-7.656422	-5.907966	-12.089306	62.695183	19.384802	-16.259010	2.961597	19.011106	3.714331	-2.498798	3.376498	4.176761	13.945701	54.940578	-6.838618	4.720007	-52.542400	0.591130	11.082196	0.608025	3.712016	0.088978	7.081792	6.320433	4.254714	-13.272294	-5.734410	-16.602676	-0.740810	15.624946	3.445400	-19.713335	0.377531	2.345672	-1.871968	-6.368273	7.722596	5.657701	1.710153	-9.502178	19.322281	-14.503842	4.133801	9.028687	0.211536	10.024485	6.778579	7.760829	6.264933	-4.980962	
-15.505172	37.322239	41.915215	-179.095474	169.601074	5.343968	6.571323	-4.415639	-7.498229	-13.505377	61.232121	20.136124	-16.844702	2.683305	18.340181	2.759753	-3.848590	2.609254	4.606467	14.401587	54.788971	-6.309570	5.099460	-52.870415	0.135559	10.370532	-0.131800	3.755492	0.012831	7.012549	6.434216	4.414768	-13.128749	-5.300519	-16.014484	-0.314797	15.485806	3.439513	-19.883034	0.329506	2.307248	-1.990941	-6.280844	8.118789	5.364899	1.692443	-8.937350	19.348406	-14.463032	4.207939	8.951360	0.281509	10.105680	6.500444	7.665937	6.352356	-4.999799	
-15.500035	37.310982	42.099102	-179.286301	169.645416	5.779435	6.905163	-2.724191	-8.184943	-13.909546	59.908989	20.241819	-17.245548	3.455140	18.319765	2.455572	-4.248383	2.343517	4.745273	14.532741	54.729904	-6.118328	5.246194	-52.958549	-0.061880	10.051453	-0.243833	3.815351	0.110966	6.842472	6.486531	4.293545	-12.646936	-5.259063	-15.666965	-0.434539	15.369969	3.414384	-20.084009	0.372968	2.444500	-2.152667	-6.256070	8.197151	5.275849	1.686881	-8.670988	19.346094	-14.486162	4.131534	8.905334	0.385246	10.153191	6.367737	7.651985	6.491523	-5.141376	
-15.492785	37.261959	42.659462	-179.809265	169.718140	7.035600	6.894907	-1.193318	-9.589328	-14.375673	59.075378	20.106438	-17.859121	3.347986	18.269894	1.588381	-5.425482	1.509449	5.086818	15.010262	54.509426	-5.571996	5.644225	-53.102520	-0.491449	9.635459	-1.025512	3.899318	0.028566	6.802607	6.549908	4.512665	-12.646455	-5.233740	-15.468495	-0.612388	15.600569	3.628606	-19.600386	0.430964	2.465243	-2.138327	-6.239351	8.364475	4.991573	1.688625	-8.356812	19.355026	-14.418657	4.217859	8.812214	0.472933	10.358232	6.201489	7.655245	6.400045	-5.245706	
-15.509224	37.245010	42.846615	-179.983139	169.763000	7.445639	7.143881	0.367771	-10.097034	-14.066285	57.413910	19.575529	-18.560999	4.005119	17.990044	1.255699	-5.832911	1.194804	5.189362	15.184303	54.486271	-5.393099	5.746488	-53.150513	-0.650658	9.409545	-1.107845	3.933315	0.075762	6.602052	6.585842	4.435609	-12.425596	-4.984216	-15.371768	-0.270849	15.372211	3.630498	-19.947618	0.466245	2.560369	-2.294382	-6.240653	8.379397	4.890326	1.668154	-8.264476	19.448368	-14.378214	4.245574	8.738019	0.450071	10.378099	6.156127	7.757661	6.487656	-5.470096	
-15.527203	37.181931	43.445946	179.442520	170.105118	8.645334	6.823871	1.576490	-11.288168	-13.009958	54.959999	18.060068	-20.082119	5.633810	18.143826	0.113528	-7.382308	0.222590	5.613418	15.803093	54.372364	-4.821557	6.140349	-53.247498	-1.091569	8.992598	-1.903341	3.863162	-0.212465	6.752132	6.756490	4.624131	-12.603248	-4.920990	-15.397156	-0.160424	15.502892	3.673676	-19.718716	0.406224	2.411928	-2.188359	-6.219761	8.431834	4.560220	1.697917	-8.021357	19.589792	-14.470895	4.265841	8.784288	0.430464	10.377584	6.053334	7.647167	6.451880	-5.570242	
-15.528280	37.158001	43.653076	179.245163	170.207489	9.090427	6.819877	2.979074	-11.663079	-12.151774	52.588287	17.125952	-20.737480	5.797575	18.080172	-0.298882	-7.886360	-0.116993	5.782766	16.002256	54.227131	-4.626090	6.273986	-53.220119	-1.228364	8.838951	-2.016054	3.850120	-0.309537	6.696894	6.803514	4.608207	-12.561920	-4.858760	-15.572468	-0.021155	15.465409	3.851606	-19.958765	0.378202	2.394797	-2.349056	-6.289063	8.187876	4.677873	1.698529	-7.807356	19.517780	-14.414375	4.342043	8.674202	0.393807	10.385020	5.817043	7.623188	6.440810	-5.567599	
-15.519966	37.103977	44.344780	178.354370	170.569778	10.870627	6.101198	4.078959	-13.015491	-10.990679	49.620026	16.389574	-20.336197	0.951828	15.827280	-1.939750	-9.320160	-1.548854	6.214383	16.408031	53.779888	-3.870840	6.717248	-53.108795	-1.878246	8.643036	-3.355030	3.821407	-0.345154	6.522878	6.825325	4.520043	-12.399071	-4.848856	-15.876837	0.070275	15.588286	3.772518	-19.657391	0.223016	2.129353	-2.132312	-6.165159	8.299432	4.414590	1.674770	-7.754715	19.477840	-14.588929	4.248546	8.677712	0.204755	10.245739	5.819010	7.774613	6.477699	-5.806233	
-15.512192	37.091011	44.626011	177.884720	170.520538	11.740527	5.748659	5.537333	-13.320464	-9.428252	46.332348	15.737506	-19.196661	1.069871	14.990706	-2.687012	-9.572843	-2.220924	6.340830	16.481920	53.578194	-3.546502	6.868953	-53.068798	-2.125829	8.818102	-3.838774	3.703091	-0.481827	6.669121	6.920843	4.451251	-12.535704	-4.890810	-16.283072	0.095771	15.592619	4.002066	-19.873960	0.115574	2.056085	-2.263138	-6.168243	8.133091	4.593026	1.672222	-7.623413	19.239742	-14.616071	4.224485	8.635715	0.152644	10.201866	5.589490	7.746233	6.459801	-5.851307	
-15.559067	36.935699	45.471256	177.384583	170.410583	12.583715	5.365268	6.960367	-13.534360	-8.477201	43.144222	15.075493	-17.593790	-3.062286	13.794106	-3.984305	-11.120663	-2.514789	6.911601	17.160376	52.567638	-2.424622	7.279127	-52.767632	-2.323865	9.109097	-4.234247	3.528619	-0.569755	6.622902	6.984749	4.288013	-12.536283	-4.969727	-16.751236	0.097899	15.627751	3.502033	-19.201258	-0.027832	1.891298	-1.992354	-6.181180	8.098527	4.424675	1.586583	-7.803404	19.182062	-14.641687	4.141128	8.509645	0.020372	10.142543	5.575130	7.788914	6.395729	-6.167929	
-15.568242	36.859631	45.891098	176.910767	170.317764	13.356367	4.884147	8.299515	-13.493234	-7.403562	40.046974	14.725722	-17.111059	-3.178282	13.410069	-4.970588	-11.788716	-2.893304	7.316647	17.614016	51.882832	-1.894933	7.392212	-52.559288	-2.467592	9.415741	-4.597206	3.322673	-0.606650	6.636189	7.040469	4.089602	-12.578213	-5.097091	-17.344053	0.099715	15.656450	3.435100	-19.095510	-0.142505	1.815799	-1.562840	-6.171640	7.927416	4.191800	1.534080	-7.731052	18.802162	-14.656027	4.131802	8.430865	-0.129332	10.069443	5.362442	7.783975	6.362701	-6.248630	
-15.545719	36.772694	46.596943	176.537384	170.095459	13.965441	4.420778	9.545438	-13.155499	-6.656320	37.215801	14.549406	-16.331537	-8.388072	12.787187	-5.747035	-12.297220	-3.117710	7.403261	16.917082	50.885887	-0.183213	7.754424	-51.966801	-2.548002	9.846565	-4.835369	3.137362	-0.606652	6.653232	7.112971	3.857821	-12.593913	-5.266588	-17.992132	0.073797	15.695721	3.341076	-19.016710	-0.156588	1.768053	-1.346348	-6.280717	7.711098	4.233340	1.382551	-7.977957	18.899004	-14.749797	4.101047	8.150342	-0.208454	10.057412	5.545350	7.774980	6.210149	-6.675614	
-15.542909	36.689743	47.021172	176.099152	169.981110	14.516313	3.809816	10.395574	-12.532208	-5.888901	34.950577	14.477833	-15.459329	-9.093899	12.215590	-6.621267	-12.879262	-3.405995	7.696568	17.190746	50.277008	0.445075	7.873417	-51.708088	-2.677009	10.186704	-5.108262	2.871686	-0.535775	6.784371	7.215523	3.579084	-12.675471	-5.468298	-18.688744	0.091864	15.760298	3.249626	-18.945515	-0.174354	1.813147	-1.010049	-6.440215	7.384459	4.312946	1.343738	-7.936622	18.498245	-14.792771	4.118113	8.079638	-0.293354	10.032442	5.502196	7.782455	6.199868	-6.816908	
